<!-- Place this file in the src directory -->
<svg xmlns="http://www.w3.org/2000/svg" viewBox="0 0 841.9 595.3">
  <g fill="#61DAFB">
    <path d="M666.3 296.5c0-88.1-71.2-159.3-159.3-159.3s-159.3 71.2-159.3 159.3 71.2 159.3 159.3 159.3 159.3-71.2 159.3-159.3z"/>
    <circle cx="507" cy="296.5" r="45.7"/>
    <path d="M669.2 450.5c-24.5-13.9-53.8-22.6-85-24.6 32.4-25.2 53.9-65.4 53.9-111.2 0-70.7-57.3-128-128-128s-128 57.3-128 128c0 45.9 21.5 86 53.9 111.2-31.2 2-60.5 10.7-85 24.6-44.6-38.8-81.3-93.4-103-157.6-1.5-4.4-2.9-8.8-4.3-13.2 9.2 1.6 18.4 2.5 27.6 2.5 25.4 0 49.2-5.9 70.6-16.5-21.3-16.1-37-40.8-43.5-69.5 3.6.5 7.2.8 10.9.8 5.3 0 10.5-.4 15.6-1.2-22.4-7.6-39.6-26.4-47.7-50-5.4.9-10.9 1.4-16.5 1.4-8.2 0-16.2-1-23.9-2.9 16.2-50.1 55-90.4 102.9-104.1 7.8-20.4 19.4-39.3 34.1-56-52.7 20.3-98.3 56.8-131.4 103.8-4.3-1.2-8.7-2.3-13.2-3.2 14.1-56.2 47.9-105.2 94.4-140.1 3.9-2.9 7.9-5.7 12-8.4 5.5-19.5 12.8-38.2 21.8-56.1-44.4 24.7-84.3 57.4-118.3 96.6-15.3 5.6-30.1 12.2-44.2 19.8-14-51.3-8.2-106.7 14.2-157.8 6.3-14.1 13.6-27.5 21.8-40.3 14.2-22.1 31.1-42.6 50.1-61.1C371.5 5.7 338.4 0 304.5 0c-97.6 0-187.5 39.3-252.7 103.5C17.2 166.8-11.2 259.3 2.5 351.5c2.2 14.1 5.3 27.8 9.3 41.2 3.6 11.7 7.7 23.2 12.3 34.6 15.7 39.3 37.4 75.4 64.7 107.1 16.3 19 33.7 37.3 52.2 54.1 14.5 13.2 29.8 25.4 45.6 36.4 23.8 16.1 48.5 30.5 74.5 43 27.2 13.1 55.7 23.6 85.2 31 4.5 1.2 8.9 2.4 13.4 3.4-9.2-1.6-18.4-2.5-27.6-2.5-25.4 0-49.2 5.9-70.6 16.5 21.3 16.1 37 40.8 43.5 69.5-3.6-.5-7.2-.8-10.9-.8-5.3 0-10.5.4-15.6 1.2 22.4 7.6 39.6 26.4 47.7 50 5.4-.9 10.9-1.4 16.5-1.4 8.2 0 16.2 1 23.9 2.9-16.2 50.1-55 90.4-102.9 104.1-7.8 20.4-19.4 39.3-34.1 56 52.7-20.3 98.3-56.8 131.4-103.8 4.3 1.2 8.7 2.3 13.2 3.2-14.1 56.2-47.9 105.2-94.4 140.1-3.9 2.9-7.9 5.7-12 8.4-5.5 19.5-12.8 38.2-21.8 56.1 44.4-24.7 84.3-57.4 118.3-96.6 15.3-5.6 30.1-12.2 44.2-19.8 14 51.3 8.2 106.7-14.2 157.8-6.3 14.1-13.6 27.5-21.8 40.3-14.2 22.1-31.1 42.6-50.1 61.1-29.1 28.4-63.3 52.5-101.4 70.5 52.2-27.3 99.3-66.8 137.4-116.6 13.1-18.3 25.2-37.5 36.2-57.6 15.4-27.5 28.7-56.6 39.9-86.8 10.2-27.9 18.2-57.4 23.5-87.4 10.5-57.5 8.2-116.9-6.4-173.2z"/>
  </g>
</svg>
